.........Why be the same as everyone else when YOU can be UNiQUE.........


General
Complete name : Liz and Dick 2012 WEBRip x264 AAC-UNiQUE.mp4
Format : MPEG-4
Format profile : Base Media
Codec ID : isom
File size : 1.39 GiB
Duration : 1h 29mn
Overall bit rate mode : Variable
Overall bit rate : 2 227 Kbps
Encoded date : UTC 2012-11-26 16:23:25

Video
ID : 1
Format : AVC
Format/Info : Advanced Video Codec
Format profile : High@L4.1
Format settings, CABAC : Yes
Format settings, ReFrames : 3 frames
Codec ID : avc1
Codec ID/Info : Advanced Video Coding
Duration : 1h 29mn
Bit rate mode : Variable
Bit rate : 2 069 Kbps
Maximum bit rate : 40.0 Mbps
Width : 720 pixels
Height : 400 pixels
Display aspect ratio : 16:9
Frame rate mode : Constant
Frame rate : 23.976 fps
Color space : YUV
Chroma subsampling : 4:2:0
Bit depth : 8 bits
Scan type : Progressive
Bits/(Pixel*Frame) : 0.300
Stream size : 1.29 GiB (93%)
Writing library : x264 core 129 r2230 1cffe9f

Audio
ID : 2
Format : AAC
Format/Info : Advanced Audio Codec
Format profile : LC
Codec ID : 40
Duration : 1h 29mn
Bit rate mode : Variable
Bit rate : 154 Kbps
Maximum bit rate : 252 Kbps
Channel(s) : 2 channels
Channel positions : Front: L R
Sampling rate : 48.0 KHz
Compression mode : Lossy
Stream size : 98.3 MiB (7%)
Language : English
Encoded date : UTC 2012-11-26 16:23:59

Subtitles : English.srt included in folder.

Sources : 720p.WEB-DL.AAC2.0.H.264-KiNGS - Thanks!

Sample Included : Yes.

Storyline
On the set of Cleopatra, Hollywood's most beautiful star, Elizabeth Taylor, fell into the arms of one of the world's greatest actors, Richard Burton - and she didn't leave. Their subsequent white-hot, scandalous love affair gave rise to the paparazzi and they became the most hunted and photographed couple on earth.

iMDB: http://www.imdb.com/title/tt2375255/

Screens :
 
http://www.shotpix.com/images/42248837487184047933.png
 
http://www.shotpix.com/images/66160139255500338555.png
 
http://www.shotpix.com/images/19265315895881837536.png